<?xml version="1.0" standalone="no"?><svg xmlns="http://www.w3.org/2000/svg" viewBox="0 0 1440 320"><path fill="#0099ff" fill-opacity="1" d="M0,192L18.5,176C36.9,160,74,128,111,128C147.7,128,185,160,222,154.7C258.5,149,295,107,332,122.7C369.2,139,406,213,443,240C480,267,517,245,554,213.3C590.8,181,628,139,665,128C701.5,117,738,139,775,122.7C812.3,107,849,53,886,64C923.1,75,960,149,997,154.7C1033.8,160,1071,96,1108,90.7C1144.6,85,1182,139,1218,133.3C1255.4,128,1292,64,1329,69.3C1366.2,75,1403,149,1422,186.7L1440,224L1440,0L1421.5,0C1403.1,0,1366,0,1329,0C1292.3,0,1255,0,1218,0C1181.5,0,1145,0,1108,0C1070.8,0,1034,0,997,0C960,0,923,0,886,0C849.2,0,812,0,775,0C738.5,0,702,0,665,0C627.7,0,591,0,554,0C516.9,0,480,0,443,0C406.2,0,369,0,332,0C295.4,0,258,0,222,0C184.6,0,148,0,111,0C73.8,0,37,0,18,0L0,0Z"></path></svg>